<mxfile host="app.diagrams.net" modified="2020-03-30T11:58:07.461Z" agent="5.0 (Macintosh; Intel Mac OS X 10_15_3) AppleWebKit/537.36 (KHTML, like Gecko) Chrome/80.0.3987.149 Safari/537.36" etag="l_bxGjd7C0ChW1tU2m0G" version="12.9.4" type="github" pages="2">
  <diagram id="g7gX6U1B5adAmnvi5vNV" name="Page-1">
    <mxGraphModel dx="1572" dy="1028" grid="0" gridSize="10" guides="1" tooltips="1" connect="1" arrows="1" fold="1" page="1" pageScale="1" pageWidth="2400" pageHeight="2400" math="0" shadow="0" extFonts="Computer Modern^https://fonts.googleapis.com/css?family=Computer+Modern">
      <root>
        <mxCell id="0" />
        <mxCell id="1" parent="0" />
        <mxCell id="28MgqyPCqKou6GGmXQ7e-1" value="" style="whiteSpace=wrap;html=1;aspect=fixed;fillColor=#E6E6E6;strokeColor=#666666;fontColor=#333333;" parent="1" vertex="1">
          <mxGeometry x="1078" y="898" width="604" height="604" as="geometry" />
        </mxCell>
        <mxCell id="egPN66_32sDSnVnQbSZV-10" value="" style="group;fontFamily=Computer Modern;" parent="1" vertex="1" connectable="0">
          <mxGeometry x="1120" y="960" width="556" height="550" as="geometry" />
        </mxCell>
        <mxCell id="egPN66_32sDSnVnQbSZV-5" value="" style="group;rounded=1;glass=0;shadow=0;strokeWidth=3;fontFamily=Computer Modern;" parent="egPN66_32sDSnVnQbSZV-10" vertex="1" connectable="0">
          <mxGeometry width="556" height="550" as="geometry" />
        </mxCell>
        <mxCell id="egPN66_32sDSnVnQbSZV-3" value="" style="whiteSpace=wrap;html=1;aspect=fixed;strokeColor=#000000;fillColor=#EA4335;strokeWidth=4;fontFamily=Computer Modern;" parent="egPN66_32sDSnVnQbSZV-5" vertex="1">
          <mxGeometry width="520" height="520" as="geometry" />
        </mxCell>
        <mxCell id="egPN66_32sDSnVnQbSZV-4" value="&lt;font size=&quot;1&quot;&gt;&lt;b style=&quot;font-size: 30px&quot;&gt;&lt;u&gt;PhilosophyV&lt;br&gt;&lt;/u&gt;&lt;/b&gt;&lt;span style=&quot;font-size: 30px&quot;&gt;RISC-V Processor&lt;/span&gt;&lt;/font&gt;" style="text;html=1;strokeColor=none;fillColor=none;align=center;verticalAlign=middle;whiteSpace=wrap;rounded=0;fontFamily=Computer Modern;" parent="egPN66_32sDSnVnQbSZV-5" vertex="1">
          <mxGeometry width="520" height="90" as="geometry" />
        </mxCell>
        <mxCell id="egPN66_32sDSnVnQbSZV-6" value="&lt;font style=&quot;font-size: 28px&quot;&gt;&lt;u style=&quot;font-weight: bold&quot;&gt;HoneyBee&lt;/u&gt;&lt;br&gt;Collision Detection Unit&lt;br&gt;&lt;/font&gt;" style="rounded=1;whiteSpace=wrap;html=1;shadow=0;glass=0;strokeColor=#000000;strokeWidth=4;fillColor=#FBBC05;fontFamily=Computer Modern;" parent="egPN66_32sDSnVnQbSZV-5" vertex="1">
          <mxGeometry x="180" y="321" width="330" height="140" as="geometry" />
        </mxCell>
        <mxCell id="egPN66_32sDSnVnQbSZV-11" style="edgeStyle=orthogonalEdgeStyle;rounded=0;orthogonalLoop=1;jettySize=auto;html=1;exitX=0.25;exitY=1;exitDx=0;exitDy=0;entryX=0.5;entryY=0;entryDx=0;entryDy=0;endArrow=none;endFill=0;strokeWidth=2;fontFamily=Computer Modern;" parent="egPN66_32sDSnVnQbSZV-5" source="egPN66_32sDSnVnQbSZV-7" target="egPN66_32sDSnVnQbSZV-8" edge="1">
          <mxGeometry relative="1" as="geometry" />
        </mxCell>
        <mxCell id="egPN66_32sDSnVnQbSZV-12" style="edgeStyle=orthogonalEdgeStyle;rounded=0;orthogonalLoop=1;jettySize=auto;html=1;exitX=0.5;exitY=1;exitDx=0;exitDy=0;endArrow=none;endFill=0;strokeWidth=2;fontFamily=Computer Modern;" parent="egPN66_32sDSnVnQbSZV-5" source="egPN66_32sDSnVnQbSZV-7" target="egPN66_32sDSnVnQbSZV-6" edge="1">
          <mxGeometry relative="1" as="geometry" />
        </mxCell>
        <mxCell id="egPN66_32sDSnVnQbSZV-7" value="&lt;font style=&quot;font-size: 27px&quot;&gt;Baseline Processor Implementation&lt;/font&gt;" style="rounded=1;whiteSpace=wrap;html=1;shadow=0;glass=0;strokeColor=#000000;strokeWidth=4;fillColor=#E6E6E6;fontFamily=Computer Modern;" parent="egPN66_32sDSnVnQbSZV-5" vertex="1">
          <mxGeometry x="20" y="110" width="480" height="160" as="geometry" />
        </mxCell>
        <mxCell id="egPN66_32sDSnVnQbSZV-9" style="edgeStyle=orthogonalEdgeStyle;rounded=0;orthogonalLoop=1;jettySize=auto;html=1;exitX=1;exitY=0.5;exitDx=0;exitDy=0;entryX=0;entryY=0.5;entryDx=0;entryDy=0;endArrow=none;endFill=0;strokeWidth=2;fontFamily=Computer Modern;" parent="egPN66_32sDSnVnQbSZV-5" source="egPN66_32sDSnVnQbSZV-8" target="egPN66_32sDSnVnQbSZV-6" edge="1">
          <mxGeometry relative="1" as="geometry" />
        </mxCell>
        <mxCell id="egPN66_32sDSnVnQbSZV-8" value="&lt;font style=&quot;font-size: 20px&quot;&gt;Supporting&lt;br&gt;Register&lt;br&gt;File&lt;br&gt;&lt;/font&gt;" style="rounded=1;whiteSpace=wrap;html=1;shadow=0;glass=0;strokeColor=#000000;strokeWidth=4;fillColor=#E6E6E6;fontFamily=Computer Modern;" parent="egPN66_32sDSnVnQbSZV-5" vertex="1">
          <mxGeometry x="40" y="300" width="120" height="190" as="geometry" />
        </mxCell>
        <mxCell id="egPN66_32sDSnVnQbSZV-18" style="edgeStyle=orthogonalEdgeStyle;rounded=0;orthogonalLoop=1;jettySize=auto;html=1;exitX=0.5;exitY=1;exitDx=0;exitDy=0;entryX=0.5;entryY=0;entryDx=0;entryDy=0;endArrow=classic;endFill=1;strokeWidth=3;fontFamily=Computer Modern;fontColor=#4285F4;strokeColor=#4285F4;" parent="1" source="egPN66_32sDSnVnQbSZV-15" target="egPN66_32sDSnVnQbSZV-16" edge="1">
          <mxGeometry relative="1" as="geometry" />
        </mxCell>
        <mxCell id="egPN66_32sDSnVnQbSZV-15" value="&lt;font style=&quot;font-size: 33px&quot;&gt;RV32I&lt;br&gt;Base Instruction Set&lt;/font&gt;" style="shape=process;whiteSpace=wrap;html=1;backgroundOutline=1;rounded=0;shadow=0;glass=0;strokeColor=#FFFFFF;strokeWidth=7;fillColor=#4285F4;fontFamily=Computer Modern;fontColor=#FFFFFF;" parent="1" vertex="1">
          <mxGeometry x="538" y="898" width="409" height="110" as="geometry" />
        </mxCell>
        <mxCell id="egPN66_32sDSnVnQbSZV-16" value="&lt;span style=&quot;font-size: 33px&quot;&gt;&lt;i&gt;Non-Standard &lt;br&gt;Extension&lt;/i&gt;&lt;/span&gt;" style="shape=process;whiteSpace=wrap;html=1;backgroundOutline=1;rounded=0;shadow=0;glass=0;strokeColor=#FFFFFF;strokeWidth=7;fillColor=#4285F4;fontFamily=Computer Modern;fontColor=#FFFFFF;" parent="1" vertex="1">
          <mxGeometry x="538" y="1055" width="411" height="110" as="geometry" />
        </mxCell>
        <mxCell id="egPN66_32sDSnVnQbSZV-21" style="edgeStyle=orthogonalEdgeStyle;rounded=0;orthogonalLoop=1;jettySize=auto;html=1;exitX=1;exitY=0.5;exitDx=0;exitDy=0;endArrow=classic;endFill=1;strokeColor=#34A853;strokeWidth=8;fontFamily=Computer Modern;fontColor=#FFFFFF;entryX=0;entryY=0.5;entryDx=0;entryDy=0;" parent="1" source="egPN66_32sDSnVnQbSZV-17" target="egPN66_32sDSnVnQbSZV-3" edge="1">
          <mxGeometry relative="1" as="geometry">
            <mxPoint x="1037" y="1225" as="targetPoint" />
          </mxGeometry>
        </mxCell>
        <mxCell id="egPN66_32sDSnVnQbSZV-17" value="&lt;font color=&quot;#ffffff&quot; style=&quot;font-size: 43px&quot;&gt;&amp;nbsp; &lt;b&gt;&amp;nbsp;C-Implementation&lt;br&gt;&amp;nbsp; &amp;nbsp;RRT&lt;/b&gt;&lt;br&gt;&lt;/font&gt;" style="shape=internalStorage;whiteSpace=wrap;html=1;backgroundOutline=1;rounded=0;shadow=0;glass=0;strokeColor=#FFFFFF;strokeWidth=4;fillColor=#34A853;fontFamily=Computer Modern;fontColor=#4285F4;align=left;" parent="1" vertex="1">
          <mxGeometry x="538" y="1301" width="417" height="179" as="geometry" />
        </mxCell>
        <mxCell id="egPN66_32sDSnVnQbSZV-20" value="" style="shape=curlyBracket;whiteSpace=wrap;html=1;rounded=1;shadow=0;glass=0;strokeColor=#4285F4;strokeWidth=4;fillColor=#4285F4;fontFamily=Computer Modern;fontColor=#FFFFFF;rotation=-180;size=0.8526551982049354;" parent="1" vertex="1">
          <mxGeometry x="943" y="952" width="178" height="163" as="geometry" />
        </mxCell>
        <mxCell id="egPN66_32sDSnVnQbSZV-26" value="" style="shape=image;html=1;verticalAlign=top;verticalLabelPosition=bottom;labelBackgroundColor=#ffffff;imageAspect=0;aspect=fixed;image=https://cdn2.iconfinder.com/data/icons/innovation-technology-1/512/tech_0011-128.png;rounded=0;shadow=0;glass=0;strokeColor=#4285F4;strokeWidth=4;fillColor=#4285F4;fontFamily=Computer Modern;fontColor=#FFFFFF;" parent="1" vertex="1">
          <mxGeometry x="1748" y="1032" width="376" height="376" as="geometry" />
        </mxCell>
        <mxCell id="28MgqyPCqKou6GGmXQ7e-2" value="&lt;b&gt;&lt;font style=&quot;font-size: 27px&quot;&gt;FPGA&lt;/font&gt;&lt;/b&gt;" style="text;html=1;strokeColor=none;fillColor=none;align=center;verticalAlign=middle;whiteSpace=wrap;rounded=0;fontFamily=Computer Modern;" parent="1" vertex="1">
          <mxGeometry x="1360" y="916" width="40" height="20" as="geometry" />
        </mxCell>
        <mxCell id="28MgqyPCqKou6GGmXQ7e-8" value="" style="endArrow=classic;html=1;fontFamily=Computer Modern;exitX=1;exitY=0.25;exitDx=0;exitDy=0;strokeWidth=6;strokeColor=#999999;" parent="1" source="28MgqyPCqKou6GGmXQ7e-1" edge="1">
          <mxGeometry width="50" height="50" relative="1" as="geometry">
            <mxPoint x="1885" y="1220" as="sourcePoint" />
            <mxPoint x="1935" y="1170" as="targetPoint" />
            <Array as="points">
              <mxPoint x="1935" y="1049" />
            </Array>
          </mxGeometry>
        </mxCell>
      </root>
    </mxGraphModel>
  </diagram>
  <diagram id="vMB4jKBJT2Xh-NJgZ_F-" name="SuperSimple">
    <mxGraphModel dx="786" dy="514" grid="1" gridSize="10" guides="1" tooltips="1" connect="1" arrows="1" fold="1" page="1" pageScale="1" pageWidth="850" pageHeight="1100" math="0" shadow="0">
      <root>
        <mxCell id="3gF-1DebG7RPl5TN7LWl-0" />
        <mxCell id="3gF-1DebG7RPl5TN7LWl-1" parent="3gF-1DebG7RPl5TN7LWl-0" />
        <mxCell id="C6c-eHWT7ZRGTu4dc1uL-0" value="Motion Planning Processor" style="rounded=0;whiteSpace=wrap;html=1;fillColor=#EA4335;strokeWidth=3;fontColor=#FFFFFF;fontSize=24;fontStyle=0;fontFamily=Georgia;" vertex="1" parent="3gF-1DebG7RPl5TN7LWl-1">
          <mxGeometry x="320" y="200" width="200" height="200" as="geometry" />
        </mxCell>
      </root>
    </mxGraphModel>
  </diagram>
</mxfile>
